<svg xmlns="http://www.w3.org/2000/svg" style="width: 1em; height: 1em; vertical-align: middle; fill: currentcolor;" version="1.1" width="801" height="846"><rect id="backgroundrect" width="100%" height="100%" x="0" y="0" fill="none" stroke="none" class="" style=""/><g class="currentLayer" style=""><title>Layer 1</title><path d="M634.4347705639649,768 a11.130435,11.130435 0 0 1 -11.041391,11.130434 H66.69355356396485 A11.130435,11.130435 0 0 1 55.65216256396485,768 V33.39130400000002 a11.130435,11.130435 0 0 1 11.041391,-11.130435 h556.699826 A11.130435,11.130435 0 0 1 634.4347705639649,33.39130400000002 v734.608696 z" fill="#FFFFFF" id="svg_2" class=""/><path d="M333.91303156396486,311.66330400000004 v-11.152696 c0,-6.188522 5.008696,-11.119304 11.163826,-11.119304 h233.672348 a11.074783,11.074783 0 0 1 11.163826,11.119304 v11.152696 c0,6.188522 -5.008696,11.119304 -11.163826,11.119304 H345.07685756396484 A11.074783,11.074783 0 0 1 333.91303156396486,311.66330400000004 zm0,66.782609 v-11.152696 c0,-6.188522 5.008696,-11.119304 11.163826,-11.119304 h233.672348 a11.074783,11.074783 0 0 1 11.163826,11.119304 v11.152696 c0,6.188522 -5.008696,11.119304 -11.163826,11.119304 H345.07685756396484 A11.074783,11.074783 0 0 1 333.91303156396486,378.445913 zm11.130435,189.217391 v-11.152696 c0,-6.188522 5.008696,-11.119304 11.163826,-11.119304 h233.672348 a11.074783,11.074783 0 0 1 11.163826,11.119304 v11.152696 c0,6.188522 -5.008696,11.119304 -11.163826,11.119304 H356.20729256396487 A11.074783,11.074783 0 0 1 345.04346656396484,567.663304 zm0,66.782609 v-11.152696 A11.108174,11.108174 0 0 1 356.20729256396487,612.173913 h55.585391 a11.063652,11.063652 0 0 1 11.163827,11.119304 v11.152696 a11.108174,11.108174 0 0 1 -11.163827,11.119304 h-55.585391 A11.063652,11.063652 0 0 1 345.04346656396484,634.445913 z" fill="#40A0FF" id="svg_3" class=""/><path d="M656.6956405639648,768 c0,18.44313 -14.914783,33.391304 -33.391304,33.391304 H66.76033656396484 A33.413565,33.413565 0 0 1 33.39129256396484,767.955478 V33.48034800000002 C33.39129256396484,15.070608000000021 48.28381456396485,1.4210854715202004e-14 66.69355356396485,1.4210854715202004e-14 h556.699826 A33.391304,33.391304 0 0 1 656.6956405639648,33.39130400000002 v734.608696 zm-22.26087,0 V33.39130400000002 a11.130435,11.130435 0 0 0 -11.041391,-11.130435 H66.69355356396485 C60.66085756396484,22.260869000000014 55.65216256396485,27.280695000000023 55.65216256396485,33.48034800000002 v734.47513 c0,6.15513 4.9753039999999995,11.174957 11.108174,11.174956 H623.3043365639649 c6.177391,0 11.130435,-4.986435 11.130434,-11.130434 zM189.21737956396487,111.30434800000003 c0,-6.188522 4.964174,-11.130435 11.097044,-11.130435 h289.458087 c6.199652,0 11.097043,4.986435 11.097043,11.130435 c0,6.188522 -4.964174,11.130435 -11.097043,11.130434 H200.31442356396485 A11.063652,11.063652 0 0 1 189.21737956396487,111.30434800000003 zm-33.391304,55.652173 c0,-6.188522 4.9753039999999995,-11.130435 11.130435,-11.130434 h356.173913 c6.066087,0 11.130435,4.986435 11.130434,11.130434 c0,6.188522 -4.9753039999999995,11.130435 -11.130434,11.130435 H166.95651056396486 c-6.066087,0 -11.130435,-4.986435 -11.130435,-11.130435 z" fill="#009900" id="svg_4" class="" fill-opacity="1" stroke="#abecab" stroke-opacity="1" filter="url(#f074)"/><path d="M100.17390156396485,601.043478 a100.173913,100.173913 0 0 1 100.173913,-100.173913 a100.173913,100.173913 0 0 1 100.173913,100.173913 a100.173913,100.173913 0 0 1 -100.173913,100.173913 a100.173913,100.173913 0 0 1 -100.173913,-100.173913 zm0,-256 a100.173913,100.173913 0 0 1 100.173913,-100.173913 a100.173913,100.173913 0 0 1 100.173913,100.173913 a100.173913,100.173913 0 0 1 -100.173913,100.173913 a100.173913,100.173913 0 0 1 -100.173913,-100.173913 z" fill="#A6D2FF" id="svg_5" class=""/><path d="M155.82607556396482,645.542956 c0,-12.288 32.144696,-11.108174 44.521739,-11.108174 c12.29913,0 44.521739,-1.135304 44.521739,11.108174 v22.305392 C244.86955356396487,680.136348 212.72485756396486,690.086956 200.34781456396485,690.086956 c-12.29913,0 -44.521739,-9.99513 -44.521739,-22.238608 v-22.305392 zm0,-256 c0,-12.288 32.144696,-11.108174 44.521739,-11.108174 c12.29913,0 44.521739,-1.135304 44.521739,11.108174 v22.305392 C244.86955356396487,424.136348 212.72485756396486,434.08695600000004 200.34781456396485,434.08695600000004 c-12.29913,0 -44.521739,-9.99513 -44.521739,-22.238608 v-22.305392 z" fill="#40A0FF" id="svg_6" class=""/><path d="M155.60346656396484,411.82608700000003 h89.488696 s-8.882087,-18.487652 -19.856696,-18.487653 h-49.775304 c-10.952348,0 -19.867826,18.487652 -19.867826,18.487653 zm-22.260869,0 h134.010434 c0,-23.195826 -18.866087,-40.748522 -42.117565,-40.748522 h-49.775304 c-23.262609,0 -42.128696,17.474783 -42.128696,40.748522 zm22.260869,256 h89.488696 s-8.882087,-18.487652 -19.856696,-18.487653 h-49.775304 c-10.952348,0 -19.867826,18.487652 -19.867826,18.487653 zm-22.260869,0 h134.010434 c0,-23.195826 -18.866087,-40.748522 -42.117565,-40.748522 h-49.775304 c-23.262609,0 -42.128696,17.474783 -42.128696,40.748522 z" fill="#005CB9" id="svg_7" class=""/><path d="M122.43477056396483,601.043478 c0,42.941217 34.882783,77.913043 77.913044,77.913043 c42.941217,0 77.913043,-34.882783 77.913043,-77.913043 c0,-42.941217 -34.882783,-77.913043 -77.913043,-77.913044 c-42.941217,0 -77.913043,34.882783 -77.913044,77.913044 zm-22.260869,0 c0,-55.296 44.911304,-100.173913 100.173913,-100.173913 c55.296,0 100.173913,44.911304 100.173913,100.173913 c0,55.296 -44.911304,100.173913 -100.173913,100.173913 c-55.296,0 -100.173913,-44.911304 -100.173913,-100.173913 zm77.913043,-22.28313 v22.305391 a22.26087,22.26087 0 0 0 44.521739,0 v-22.305391 a22.26087,22.26087 0 0 0 -44.521739,0 zm-22.260869,0 A44.454957,44.454957 0 0 1 200.34781456396485,534.2608690000001 c24.576,0 44.521739,19.95687 44.521739,44.499479 v22.305391 A44.454957,44.454957 0 0 1 200.34781456396485,645.5652170000001 c-24.576,0 -44.521739,-19.95687 -44.521739,-44.499478 v-22.305391 zM122.43477056396483,345.043478 c0,42.941217 34.882783,77.913043 77.913044,77.913043 c42.941217,0 77.913043,-34.882783 77.913043,-77.913043 c0,-42.941217 -34.882783,-77.913043 -77.913043,-77.913044 c-42.941217,0 -77.913043,34.882783 -77.913044,77.913044 zm-22.260869,0 c0,-55.296 44.911304,-100.173913 100.173913,-100.173913 c55.296,0 100.173913,44.911304 100.173913,100.173913 c0,55.296 -44.911304,100.173913 -100.173913,100.173913 c-55.296,0 -100.173913,-44.911304 -100.173913,-100.173913 zm77.913043,-22.28313 v22.305391 a22.26087,22.26087 0 0 0 44.521739,0 v-22.305391 a22.26087,22.26087 0 0 0 -44.521739,0 zm-22.260869,0 A44.454957,44.454957 0 0 1 200.34781456396485,278.260869 c24.576,0 44.521739,19.95687 44.521739,44.499479 v22.305391 A44.454957,44.454957 0 0 1 200.34781456396485,389.565217 c-24.576,0 -44.521739,-19.95687 -44.521739,-44.499478 v-22.305391 z" fill="#005CB9" id="svg_8" class=""/><path d="M178.08694456396483,578.760348 a22.26087,22.26087 0 0 1 44.521739,0 v22.305391 A22.194087,22.194087 0 0 1 200.34781456396485,623.304348 a22.26087,22.26087 0 0 1 -22.26087,-22.238609 v-22.305391 zm0,-256 a22.26087,22.26087 0 0 1 44.521739,0 v22.305391 A22.194087,22.194087 0 0 1 200.34781456396485,367.304348 a22.26087,22.26087 0 0 1 -22.26087,-22.238609 v-22.305391 z" fill="#FFFFFF" id="svg_9" class=""/><path d="M472.6863624788466,799.9648478084107 C500.2651976281501,812.4309348084107 537.0637016617311,819.5878038084106 573.8622068957895,819.5878038084106 c73.49011392960155,0 146.98022905968082,-28.560696 146.9802278592031,-70.834087 v-28.326956 L573.8622068957895,773.1738908084106 l-146.98022905968082,-52.758261 v28.338087 c0,21.103304 18.319081113500832,38.789565 45.804384642737745,51.211131 z" fill="#ececab" id="svg_10" class="" fill-opacity="1"/><path d="M568.6674279660392,775.0660561279351 c81.67524324226189,0 147.88933046586416,-38.19005871582031 147.88932925796126,-85.29643859922338 c0,-47.106379883403065 -66.2140860156994,-85.29643859922338 -147.88932925796126,-85.29643757744313 s-147.88933046586416,38.19005871582031 -147.88933046586416,85.29643757744313 c0,47.106379883403065 66.2140860156994,85.29643859922338 147.88933046586416,85.29643859922338 z" fill="#ececab" id="svg_11" class="" fill-opacity="1"/><path d="M561.9141702712402,739.9909068947754 c43.030261,0 77.913043,-20.357565 77.913043,-45.456695 s-34.882783,-45.445565 -77.913043,-45.445565 s-77.913043,20.346435 -77.913044,45.445565 s34.882783,45.456696 77.913044,45.456695 z" fill="#ececab" id="svg_12" class="" fill-opacity="1"/><path d="M614.3763825770926,812.1455600553398 V788.3275039113992 c-8.552964449204326,1.3113045606279372 -17.355937124339462,2.205375073039532 -26.316811598273873,2.6583716418659686 v23.82997662713647 a237.74608242652798,215.3877043360996 0 0 0 26.316811598273873,-2.6702921250617506 zm26.316812780474425,-5.519398995219469 c9.302992673598409,-2.5033989341843133 18.14544257173419,-5.531320549437999 26.316811598273873,-9.036079699909688 V773.7839467704885 c-8.329270825338961,3.4809171130573753 -17.132244682674646,6.484996690896749 -26.316811598273873,8.976474070862531 v23.865740218769314 zm-78.95043715922272,8.18969112028122 v-23.84189711033225 a233.52223354375863,211.56107928706885 0 0 1 -26.316811598273873,-2.646451158670187 v23.818056143940687 c8.618756274270416,1.3113045606279372 17.4348880237391,2.217296627258062 26.316811598273873,2.6702921250617506 zm-78.95043715922272,-17.225770820190906 c8.171370208740234,3.5047591504716875 17.013818924675466,6.532679694702626 26.316812780474425,9.036079699909688 v-23.865740218769314 a200.36304967680096,181.52028779276608 0 0 1 -26.316812780474425,-8.976474070862531 v23.80613458972216 zm-26.316811598273873,-14.698529848592282 v-22.649802736775875 a141.26864845203352,127.9833071241045 0 0 1 -26.316812780474425,-21.171604985270502 v0.21457619468331346 c0,16.844300363607406 10.0135472215935,31.65011884505272 26.316812780474425,43.60683152736306 zm236.8513102954676,0 c16.303265558880923,-11.956711611287593 26.316812780474425,-26.762530092732906 26.316811598273873,-43.60683152736306 v-0.21457619468331346 c-7.460816842945695,7.7963001805019365 -16.31642345101392,14.901185560079814 -26.316811598273873,21.171604985270502 v22.649802736775875 zM403.881359920699,680.4429165150575 a98.00380857194972,88.78722681384325 0 0 1 -0.03947485859954363,-2.3841898181355 c0,-64.90956611187816 78.25304168556117,-113.24901368387938 171.0592795264821,-113.24901368387938 s171.0592795264821,48.33944757200122 171.0592795264821,113.24901368387938 c0,0.7987034337770946 0,1.5854863843584062 -0.03947485859954363,2.3722693349397184 L745.9604441150636,680.4429165150575 v58.84180346919775 C745.9604441150636,799.2351723025935 664.8651866019233,838.9915367435115 574.9011645885815,838.9915367435115 c-40.40946497817099,0 -80.9636726808077,-8.559241093668938 -112.17541285124648,-23.901502739379406 C426.3953929174678,797.2443734242373 403.84188506209944,770.8871558255022 403.84188506209944,739.2847199842554 V680.4429165150575 l0.03947485859954363,-0.011920483195781722 zM574.9011645885815,767.4658432704692 c79.93731689961517,0 144.7424679282082,-40.030546264648436 144.7424667460077,-89.40711657354713 c0,-49.376570308898685 -64.80514984639251,-89.40711657354713 -144.7424667460077,-89.40711550252438 s-144.7424679282082,40.030546264648436 -144.7424679282082,89.40711550252438 c0,49.376570308898685 64.80514984639251,89.40711657354713 144.7424679282082,89.40711657354713 zm0,-18.87086176257372 c-63.48930979846907,0 -118.4256551477338,-29.039431278015375 -118.4256551477338,-72.52705261830687 c0,-43.4876213402915 54.93634534926474,-72.51513213511109 118.4256551477338,-72.51513213511109 s118.4256551477338,29.027510794819595 118.4256551477338,72.51513213511109 s-54.93634534926474,72.52705261830687 -118.4256551477338,72.52705261830687 zm0,-23.841898181355 c50.870398265294675,0 92.10884236725938,-21.803415228170156 92.10884236725938,-48.685154436951876 s-41.238445284165266,-48.673233953756096 -92.10884236725938,-48.673233953756096 s-92.10884236725938,21.791494744974376 -92.10884354945993,48.673233953756096 s41.238445284165266,48.68515550797463 92.10884354945993,48.685154436951876 z" fill="#989900" id="svg_13" class="" fill-opacity="1"/><path d="M604.2371513155332,661.8283351102439 c89.70830269819015,0 162.43478802888484,-41.85333184814453 162.43478670218025,-93.47825769849695 c0,-51.624925850352405 -72.72648400399011,-93.47825769849695 -162.43478670218025,-93.47825769849695 s-162.43478802888484,41.85333184814453 -162.43478802888484,93.47825769849695 c0,51.624925850352405 72.72648400399011,93.47825769849695 162.43478802888484,93.47825769849695 z" fill="#ececab" id="svg_15" class="" fill-opacity="1"/><path d="M620.8367816854221,620.9180589285975 c57.59052178366936,0 104.27668101114857,-26.87247465677977 104.27668101114857,-60.00392897522212 s-46.686160565851814,-59.989237107951645 -104.27668101114857,-59.989237107951645 s-104.27668101114857,26.857782789509297 -104.27668234952115,59.989237107951645 s46.686160565851814,60.00393029524613 104.27668234952115,60.00392897522212 z" fill="#ececab" class="" id="svg_22" fill-opacity="1"/><path d="M499.9554182752886,692.4587942596065 C530.4340895323198,704.4188101106068 571.1018498745341,711.2851410325351 611.7696115434527,711.2851410325351 c81.21738693735219,0 162.43477520140885,-27.401250839625984 162.43477387470438,-67.95851844376936 v-27.177000668341528 L611.7696115434527,666.7554393557419 l-162.43477520140885,-50.61649560372957 v27.18767883675329 c0,20.246597857730162 20.245279529123795,37.214870412295866 50.620581933244665,49.132171670840776 z" fill="#ececab" id="svg_14" class="" fill-opacity="1"/><path d="M527.8735094291992,590.6493017304688 c43.030261,0 77.913043,-20.357565 77.913043,-45.456696 s-34.882783,-45.445565 -77.913043,-45.445565 s-77.913043,20.346435 -77.913044,45.445565 s34.882783,45.456696 77.913044,45.456696 z" fill="#FFFFFF" id="svg_16" class=""/><path d="M649.8262379003783,696.3440054762368 V672.2100608163261 c-8.48478315525289,1.3286958822455281 -17.217581556757594,2.2346241036112566 -26.10702419095009,2.6936285894820395 v24.146024325059326 a235.85085234250334,218.244307562424 0 0 0 26.10702419095009,-2.705708254630572 zm26.107023018173628,-5.59260063421606 c9.228832412337686,-2.5366005391422677 18.000793337984902,-5.604680299364592 26.10702419095009,-9.155921705300152 V657.4736170567311 c-8.26287274010006,3.5270831608658013 -16.995672314381217,6.571004676018367 -26.10702419095009,9.095526635239409 v24.18226115005031 zm-78.32107022729734,8.29830888884663 v-24.15810399020786 a231.66067453179244,214.3669314758877 0 0 1 -26.10702419095009,-2.6815489243335078 v24.133944659910792 c8.550050510494387,1.3286958822455281 17.295903086713256,2.2467037687597884 26.10702419095009,2.705708254630572 zm-78.32107140007379,-17.454230594146782 c8.10623085296518,3.5512414059355586 16.878190605835943,6.619320080930577 26.10702419095009,9.155921705300152 v-24.18226115005031 a198.76582428575063,183.92772066527127 0 0 1 -26.10702419095009,-9.095526635239409 v24.12186607998957 zm-26.10702419095009,-14.893470724707452 v-22.95019824808381 a140.1425033238229,129.6806998753448 0 0 1 -26.107023018173628,-21.452395735577287 v0.2174231204005129 c0,17.067699758257966 9.933722663609332,32.06988204316568 26.107023018173628,44.18517086326059 zm234.9632142002214,0 c16.173301527340755,-12.115288820094914 26.10702419095009,-27.11747110500262 26.107023018173628,-44.18517086326059 v-0.2174231204005129 c-7.401341774469991,7.8996994730365895 -16.18635452927847,15.098814179959431 -26.107023018173628,21.452395735577287 v22.95019824808381 zM441.00920924247305,562.8946421597832 a97.22255588227839,89.96477721930673 0 0 1 -0.039161351366061053,-2.4158103990207858 c0,-65.77043640410788 77.62923532351633,-114.75099124041907 169.69565489562262,-114.75099232564637 s169.69565372284617,48.98055483631117 169.69565372284617,114.75099232564637 c0,0.8092963263140046 0,1.6065140727067821 -0.039161351366061053,2.4037307338722536 L780.3613565095757,562.8946421597832 v59.622199388969314 C780.3613565095757,683.2623922794882 699.9125625265259,723.5460298963699 610.6657027867295,723.5460298963699 c-40.08733460729669,0 -80.31825809979054,-8.67275897435961 -111.2811890013571,-24.218497975041295 C463.34376810358947,681.2451912962774 440.9700478911069,654.538408187006 440.9700478911069,622.5168415487525 V562.8946421597832 l0.039161351366061053,-0.01207966514853213 zM610.6657027867295,651.071720096201 c79.30008407424914,0 143.58863070467257,-40.56145580734306 143.5886295318961,-90.5928883354385 c0,-50.03143252809544 -64.28854545764696,-90.5928883354385 -143.5886295318961,-90.5928883354385 s-143.58863070467257,40.56145580734306 -143.58863070467257,90.5928883354385 c0,50.03143252809544 64.28854545764696,90.5928883354385 143.58863070467257,90.5928883354385 zm0,-19.121138651687 c-62.98319483448768,0 -117.48160651372247,-29.424569943823148 -117.48160768649893,-73.48895175218956 c0,-44.0643807231391 54.49841167923479,-73.47687208704103 117.48160768649893,-73.47687100181372 s117.48160651372247,29.412491363901925 117.48160651372247,73.47687100181372 s-54.49841167923479,73.48895066696225 -117.48160651372247,73.48895175218956 zm0,-24.15810399020786 c50.46487692843524,0 91.3745823227724,-22.092585431630294 91.3745823227724,-49.33084776198171 s-40.909706567113616,-49.31876809683317 -91.3745823227724,-49.31876809683317 s-91.3745823227724,22.080506851709067 -91.37458349554885,49.31876809683317 s40.909706567113616,49.33084776198171 91.37458349554885,49.33084776198171 z" fill="#989900" id="svg_17" class="" fill-opacity="1"/><path d="M448.8220483665273,558.6443484474045 C478.7889839231017,576.4160165170778 518.773934156921,586.6188572550042 558.7588856951696,586.6188572550042 c79.85375018156387,0 159.70750166755687,-40.716161306338094 159.70750036312774,-100.98115649139595 v-40.38294129154072 L558.7588856951696,520.4511291097815 l-159.70750166755687,-75.21223657860877 v40.398808232435286 c0,30.084894631443508 19.90536207624616,55.29844880330251 49.77066433891462,73.00664768379634 z" fill="#ececab" id="svg_18" class="" fill-opacity="1"/><path d="M556.745882786181,531.3179067576311 c84.07798383882742,0 152.23997190877037,-47.261020526420495 152.23997066533312,-105.55618061405416 c0,-58.29516008763365 -68.16198682650568,-105.55618061405416 -152.23997066533312,-105.55617934957907 s-152.23997190877037,47.261020526420495 -152.23997190877037,105.55617934957907 c0,58.29516008763365 68.16198682650568,105.55618061405416 152.23997190877037,105.55618061405416 z" fill="#ececab" id="svg_19" class="" fill-opacity="1"/><path d="M567.5900504041416,487.1518290606623 c57.59052178366936,0 104.27668101114857,-26.87247465677977 104.27668101114857,-60.00392897522212 s-46.686160565851814,-59.989237107951645 -104.27668101114857,-59.989237107951645 s-104.27668101114857,26.857782789509297 -104.27668234952115,59.989237107951645 s46.686160565851814,60.00393029524613 104.27668234952115,60.00392897522212 z" fill="#ececab" id="svg_20" class="" fill-opacity="1"/><path d="M602.7595758184979,577.4299399564667 V551.7165483002167 c-8.393873918506259,1.415652375 -17.033105752331323,2.3808690625 -25.827303472164736,2.86991309375 v25.72626071875 a233.3238554139813,232.52730474999998 0 0 0 25.827303472164736,-2.8827821562500002 zm25.827303472164736,-5.95860834375 c9.129951145095307,-2.70260834375 17.807925900686055,-5.9714785625 25.82730231195386,-9.7551309375 V536.0156792377168 c-8.174341137065278,3.75791309375 -16.81357413110122,7.00104403125 -25.82730231195386,9.69078215625 v25.76487021875 zm-77.48190925628333,8.841390500000001 v-25.73912978125 a229.17857278322188,228.3961738125 0 0 1 -25.827303472164736,-2.8570440312499996 v25.71339165625 c8.458441974149768,1.415652375 17.11058811523006,2.3937392812500002 25.827303472164736,2.8827821562500002 zm-77.48190925628333,-18.596521437499998 c8.019377571478683,3.783652375 16.697351166858553,7.0525214375 25.827303472164736,9.7551309375 v-25.76487021875 a196.63617064033647,195.96486906250001 0 0 1 -25.827303472164736,-9.69078215625 v25.7005214375 zm-25.82730231195386,-15.8681738125 v-24.4521738125 a138.6409625325248,138.167652375 0 0 1 -25.827303472164736,-22.856347625 v0.23165121875000008 c0,18.18469525 9.827288930551303,34.16869525 25.827303472164736,47.07687021875 zm232.44572660863912,0 c16.000014541613435,-12.9081738125 25.827303472164736,-28.892173812499998 25.82730231195386,-47.07687021875 v-0.23165121875000008 c-7.322040946233563,8.41669525 -16.012927688657786,16.08695596875 -25.82730231195386,22.856347625 v24.4521738125 zM396.1798932833674,435.24698283146677 a96.18087594914503,95.8525214375 0 0 1 -0.03874176155480574,-2.5739130937500003 c0,-70.07478215625001 76.79748577808256,-122.2608690625 167.87747024864902,-122.2608690625 s167.87746908843818,52.18608690625 167.87746908843818,122.2608690625 c0,0.8622607187500007 0,1.711652375 -0.0387406013439302,2.5610440312500002 L731.8960908588998,435.24698283146677 v63.524173812499996 C731.8960908588998,563.4922006752167 652.3092562594151,606.4122006752167 564.0186217704617,606.4122006752167 c-39.65782345472233,0 -79.45769732798689,-9.240347625 -110.08887945481223,-25.8034785625 C418.2751510731442,561.3429828314667 396.1411515218126,532.8883744877168 396.1411515218126,498.7711566439667 V435.24698283146677 l0.03874176155480574,-0.012869062500000021 zM564.0186217704617,529.1948090189667 c78.45043241135771,0 142.0501667764843,-43.215999999999994 142.0501656162734,-96.52173928125 c0,-53.30573928125 -63.599733204915715,-96.52173928125 -142.0501656162734,-96.52173812500001 s-142.0501667764843,43.215999999999994 -142.0501667764843,96.52173812500001 c0,53.30573928125 63.599733204915715,96.52173928125 142.0501667764843,96.52173928125 zm0,-20.3725214375 c-62.308368611412924,0 -116.22286330431956,-31.35026071875 -116.22286330431956,-78.29843453125 c0,-46.948173812499995 53.91449469290666,-78.28556546875 116.22286330431956,-78.28556546875 s116.22286330431956,31.337391656250002 116.22286330431956,78.28556546875 s-53.91449469290666,78.29843453125 -116.22286330431956,78.29843453125 zm0,-25.7391309375 c49.92417678794472,0 90.39555983215482,-23.53843453125 90.39555983215482,-52.55930359375 s-40.47138420442099,-52.54643453125 -90.39555983215482,-52.54643453125 s-90.39555983215482,23.52556546875 -90.3955609923657,52.54643453125 s40.47138420442099,52.55930475 90.3955609923657,52.55930359375 z" fill="#989900" id="svg_21" class="" fill-opacity="1"/></g><defs><filter id="f074" xmlns:inkscape="http://www.inkscape.org/namespaces/inkscape" inkscape:label="Black hole" inkscape:menu="Morphology" inkscape:menu-tooltip="Creates a black light inside and outside" height="1.5" width="1.5" y="-.25" x="-.25" color-interpolation-filters="sRGB">
            <feGaussianBlur stdDeviation="5" in="SourceAlpha" result="result1"/>
            <feComposite operator="arithmetic" k2="3.2" k1="-1" k4="-2" result="result3" in2="result1"/>
            <feColorMatrix values="1 0 0 0 0 0 1 0 0 0 0 0 1 0 0 0 0 0 10 0 " result="result2"/>
            <feComposite result="fbSourceGraphic" in="SourceGraphic" operator="out" in2="result2"/>
            <feBlend mode="multiply" in="result1" in2="fbSourceGraphic" result="result91"/>
            <feBlend mode="screen" in="fbSourceGraphic" in2="result91"/>
        </filter></defs></svg>